<svg id="Layer_1" data-name="Layer 1" xmlns="http://www.w3.org/2000/svg" viewBox="0 0 101 96"><defs><style>.cls-1{opacity:0.4;}.cls-2{fill:#58595b;}</style></defs><title>lmc landing</title><g class="cls-1"><path class="cls-2" d="M0,76.74h2l2.31,5.59h0l2.25-5.59h2v8.94H7.09v-6h0L5,84.65H3.71l-2-4.9h0v5.93H0Z"/><path class="cls-2" d="M14.87,76.74h6.21V78.2H16.54v2.19h4v1.47h-4v2.36h4.59v1.46H14.87Z"/><path class="cls-2" d="M27.08,76.74h3.49A3.29,3.29,0,0,1,34.1,80v2.38a3.32,3.32,0,0,1-3.52,3.3h-3.5Zm3.44,7.48a1.75,1.75,0,0,0,1.92-1.74V79.9a1.79,1.79,0,0,0-2-1.7h-1.7v6Z"/><path class="cls-2" d="M39,76.74h1.81l2,6.59h0l2-6.59h1.65l-3,9H41.9Z"/><path class="cls-2" d="M51.77,76.74h1.67v8.94H51.77Z"/><path class="cls-2" d="M59,83.61,60.5,83a2.18,2.18,0,0,0,2.15,1.36c.91,0,1.76-.35,1.76-1.18,0-.67-.54-1-1.23-1.17l-1.51-.36c-1.19-.3-2.14-.84-2.14-2.42s1.47-2.67,3.2-2.67a3,3,0,0,1,3.15,1.84l-1.37.6a2,2,0,0,0-1.92-1c-.73,0-1.43.33-1.43,1.13,0,.63.6.92,1.31,1.11L64,80.6a2.36,2.36,0,0,1,2,2.49c0,1.64-1.46,2.73-3.44,2.73C61,85.82,59.45,85.13,59,83.61Z"/><path class="cls-2" d="M71.84,76.74h1.67v8.94H71.84Z"/><path class="cls-2" d="M79.47,82.75V79.89a3.62,3.62,0,0,1,7.21,0v2.68a3.39,3.39,0,0,1-3.58,3.31C81.16,85.84,79.47,84.74,79.47,82.75ZM85,82.62V79.76a1.79,1.79,0,0,0-2-1.69,1.75,1.75,0,0,0-1.92,1.73v2.86a1.78,1.78,0,0,0,2,1.69A1.75,1.75,0,0,0,85,82.62Z"/><path class="cls-2" d="M92.63,76.74h1.62l3.89,6.1h0v-6.1h1.6v8.94H98.14l-3.88-6.11h0v6.11H92.63Z"/><polygon class="cls-2" points="9.2 10.3 0 0.27 0 63.61 9.2 63.61 9.2 10.3"/><polygon class="cls-2" points="85.22 16.47 50.4 55.26 14.28 15.85 14.28 28.22 47.44 64.69 50.67 68.46 54.18 64.69 85.22 29.25 85.22 16.47"/><polygon class="cls-2" points="90.3 10.8 90.3 63.61 100 63.61 100 0 90.3 10.8"/></g></svg>